<?xml version="1.0" encoding="UTF-8"?>
<svg id="Layer_1" data-name="Layer 1" xmlns="http://www.w3.org/2000/svg" viewBox="0 0 612 644.87">
  <defs>
    <style>
      .cls-1 {
        opacity: .79;
      }

      .cls-1, .cls-2 {
        fill: #1b5091;
      }

      .cls-3 {
        fill: #4a7abe;
      }

      .cls-4 {
        fill: #144675;
      }
    </style>
  </defs>
  <polygon class="cls-3" points="229.31 310.31 333.5 291.8 333.5 145.38 229.31 179.6 229.31 310.31"/>
  <polygon class="cls-3" points="229.31 359.12 229.31 488.71 333.5 488.71 333.5 345.65 229.31 359.12"/>
  <polygon class="cls-3" points="118.02 331.07 195.49 317.6 195.49 194.18 118.02 216.62 118.02 331.07"/>
  <polygon class="cls-3" points="118.02 374.83 195.49 364.73 195.49 490.39 118.02 490.39 118.02 374.83"/>
  <g>
    <polygon class="cls-2" points="333.5 379.91 333.5 488.71 277.22 488.71 277.22 516.17 381.42 516.17 381.42 387.14 333.5 379.91"/>
    <polygon class="cls-1" points="333.5 379.91 277.22 371.43 277.22 488.71 333.5 488.71 333.5 379.91"/>
  </g>
  <g>
    <polygon class="cls-2" points="333.5 193.31 333.5 291.8 277.22 301.8 277.22 319.26 381.42 337.77 381.42 209.3 333.5 193.31"/>
    <polygon class="cls-1" points="333.5 193.31 277.22 174.52 277.22 301.8 333.5 291.8 333.5 193.31"/>
  </g>
  <polygon class="cls-2" points="416.88 395.27 416.88 516.17 493.98 516.17 493.98 402.47 416.88 395.27"/>
  <polygon class="cls-2" points="416.88 344.13 493.98 361.33 493.98 249.13 416.88 222.2 416.88 344.13"/>
  <polygon class="cls-4" points="168.12 512.43 233.95 530.38 233.95 570.4 415.06 543.47 256.49 543.47 256.49 512.43 168.12 512.43"/>
  <polygon class="cls-4" points="234.22 152.45 358.05 107.85 358.05 170.4 448.06 200.14 381.42 156.38 381.42 74.47 234.22 152.45"/>
</svg>